<?xml version="1.0" encoding="UTF-8" standalone="no"?><svg xmlns="http://www.w3.org/2000/svg" xmlns:xlink="http://www.w3.org/1999/xlink" contentScriptType="application/ecmascript" contentStyleType="text/css" height="780px" preserveAspectRatio="none" style="width:711px;height:780px;" version="1.1" viewBox="0 0 711 780" width="711px" zoomAndPan="magnify"><defs/><g><!--MD5=[2e2f4e1d7a5de68f564c5fd59ae133df]
entity sinker--><polygon fill="#FDFDFD" points="270.5,18,280.5,8,481.5,8,481.5,63.2188,471.5,73.2188,270.5,73.2188,270.5,18" style="stroke: #D0D0D0; stroke-width: 1.5;"/><line style="stroke: #D0D0D0; stroke-width: 1.5;" x1="471.5" x2="480.5" y1="18" y2="9"/><line style="stroke: #D0D0D0; stroke-width: 1.5;" x1="270.5" x2="471.5" y1="18" y2="18"/><line style="stroke: #D0D0D0; stroke-width: 1.5;" x1="471.5" x2="471.5" y1="18" y2="73.2188"/><text fill="#202020" font-family="sans-serif" font-size="14" font-weight="bold" lengthAdjust="spacingAndGlyphs" textLength="54" x="285.5" y="42.5332">[sinker]</text><text fill="#202020" font-family="sans-serif" font-size="14" lengthAdjust="spacingAndGlyphs" textLength="171" x="285.5" y="60.1426">Basic types and extensions</text><!--MD5=[3861a36c2112e8a0e866ae95aca4a241]
entity prayer--><polygon fill="#FDFDFD" points="101.5,143,111.5,133,216.5,133,216.5,188.2188,206.5,198.2188,101.5,198.2188,101.5,143" style="stroke: #D0D0D0; stroke-width: 1.5;"/><line style="stroke: #D0D0D0; stroke-width: 1.5;" x1="206.5" x2="215.5" y1="143" y2="134"/><line style="stroke: #D0D0D0; stroke-width: 1.5;" x1="101.5" x2="206.5" y1="143" y2="143"/><line style="stroke: #D0D0D0; stroke-width: 1.5;" x1="206.5" x2="206.5" y1="143" y2="198.2188"/><text fill="#202020" font-family="sans-serif" font-size="14" font-weight="bold" lengthAdjust="spacingAndGlyphs" textLength="55" x="116.5" y="167.5332">[prayer]</text><text fill="#202020" font-family="sans-serif" font-size="14" lengthAdjust="spacingAndGlyphs" textLength="75" x="116.5" y="185.1426">Macro utility</text><!--MD5=[e63671647d2a27984ad6837a36ad44b3]
entity sneaker--><polygon fill="#FDFDFD" points="101,268,111,258,209,258,209,348.4375,199,358.4375,101,358.4375,101,268" style="stroke: #D0D0D0; stroke-width: 1.5;"/><line style="stroke: #D0D0D0; stroke-width: 1.5;" x1="199" x2="208" y1="268" y2="259"/><line style="stroke: #D0D0D0; stroke-width: 1.5;" x1="101" x2="199" y1="268" y2="268"/><line style="stroke: #D0D0D0; stroke-width: 1.5;" x1="199" x2="199" y1="268" y2="358.4375"/><text fill="#202020" font-family="sans-serif" font-size="14" font-weight="bold" lengthAdjust="spacingAndGlyphs" textLength="67" x="116" y="292.5332">[sneaker]</text><text fill="#202020" font-family="sans-serif" font-size="14" lengthAdjust="spacingAndGlyphs" textLength="68" x="116" y="310.1426">- Assertion</text><text fill="#202020" font-family="sans-serif" font-size="14" lengthAdjust="spacingAndGlyphs" textLength="60" x="116" y="327.752">- Logging</text><text fill="#202020" font-family="sans-serif" font-size="14" lengthAdjust="spacingAndGlyphs" textLength="60" x="116" y="345.3613">- Unit test</text><!--MD5=[6f1c1e0618e0690fd2ee1245e9fed688]
entity ripper--><polygon fill="#FDFDFD" points="25,437,35,427,271,427,271,482.2188,261,492.2188,25,492.2188,25,437" style="stroke: #D0D0D0; stroke-width: 1.5;"/><line style="stroke: #D0D0D0; stroke-width: 1.5;" x1="261" x2="270" y1="437" y2="428"/><line style="stroke: #D0D0D0; stroke-width: 1.5;" x1="25" x2="261" y1="437" y2="437"/><line style="stroke: #D0D0D0; stroke-width: 1.5;" x1="261" x2="261" y1="437" y2="492.2188"/><text fill="#202020" font-family="sans-serif" font-size="14" font-weight="bold" lengthAdjust="spacingAndGlyphs" textLength="53" x="40" y="461.5332">[ripper]</text><text fill="#202020" font-family="sans-serif" font-size="14" lengthAdjust="spacingAndGlyphs" textLength="206" x="40" y="479.1426">Partial implementation of classes</text><!--MD5=[68901c361d0d0b317b2d874379863fc4]
entity banker--><polygon fill="#FDFDFD" points="79.5,571,89.5,561,216.5,561,216.5,616.2188,206.5,626.2188,79.5,626.2188,79.5,571" style="stroke: #D0D0D0; stroke-width: 1.5;"/><line style="stroke: #D0D0D0; stroke-width: 1.5;" x1="206.5" x2="215.5" y1="571" y2="562"/><line style="stroke: #D0D0D0; stroke-width: 1.5;" x1="79.5" x2="206.5" y1="571" y2="571"/><line style="stroke: #D0D0D0; stroke-width: 1.5;" x1="206.5" x2="206.5" y1="571" y2="626.2188"/><text fill="#202020" font-family="sans-serif" font-size="14" font-weight="bold" lengthAdjust="spacingAndGlyphs" textLength="59" x="94.5" y="595.5332">[banker]</text><text fill="#202020" font-family="sans-serif" font-size="14" lengthAdjust="spacingAndGlyphs" textLength="97" x="94.5" y="613.1426">Data structures</text><!--MD5=[e701bbac852ce3c7f1c3d2193e52d58f]
entity broker--><polygon fill="#FDFDFD" points="6,696,16,686,290,686,290,758.8281,280,768.8281,6,768.8281,6,696" style="stroke: #D0D0D0; stroke-width: 1.5;"/><line style="stroke: #D0D0D0; stroke-width: 1.5;" x1="280" x2="289" y1="696" y2="687"/><line style="stroke: #D0D0D0; stroke-width: 1.5;" x1="6" x2="280" y1="696" y2="696"/><line style="stroke: #D0D0D0; stroke-width: 1.5;" x1="280" x2="280" y1="696" y2="768.8281"/><text fill="#202020" font-family="sans-serif" font-size="14" font-weight="bold" lengthAdjust="spacingAndGlyphs" textLength="57" x="21" y="720.5332">[broker]</text><text fill="#202020" font-family="sans-serif" font-size="14" lengthAdjust="spacingAndGlyphs" textLength="161" x="21" y="738.1426">Game programming utility</text><text fill="#202020" font-family="sans-serif" font-size="14" lengthAdjust="spacingAndGlyphs" textLength="244" x="21" y="755.752">(Entity, Collision, Gamepad, Scene, ...)</text><!--MD5=[bb766f2372fd012cbf7b0fbd74e66c9c]
entity greeter--><polygon fill="#FDFDFD" points="265,143,275,133,487,133,487,188.2188,477,198.2188,265,198.2188,265,143" style="stroke: #D0D0D0; stroke-width: 1.5;"/><line style="stroke: #D0D0D0; stroke-width: 1.5;" x1="477" x2="486" y1="143" y2="134"/><line style="stroke: #D0D0D0; stroke-width: 1.5;" x1="265" x2="477" y1="143" y2="143"/><line style="stroke: #D0D0D0; stroke-width: 1.5;" x1="477" x2="477" y1="143" y2="198.2188"/><text fill="#202020" font-family="sans-serif" font-size="14" font-weight="bold" lengthAdjust="spacingAndGlyphs" textLength="63" x="280" y="167.5332">[greeter]</text><text fill="#202020" font-family="sans-serif" font-size="14" lengthAdjust="spacingAndGlyphs" textLength="182" x="280" y="185.1426">Command line parser/builder</text><!--MD5=[86550f1cfd8dba1ec188e76c59aa4094]
entity locator--><polygon fill="#FDFDFD" points="305.5,285.5,315.5,275.5,452.5,275.5,452.5,330.7188,442.5,340.7188,305.5,340.7188,305.5,285.5" style="stroke: #D0D0D0; stroke-width: 1.5;"/><line style="stroke: #D0D0D0; stroke-width: 1.5;" x1="442.5" x2="451.5" y1="285.5" y2="276.5"/><line style="stroke: #D0D0D0; stroke-width: 1.5;" x1="305.5" x2="442.5" y1="285.5" y2="285.5"/><line style="stroke: #D0D0D0; stroke-width: 1.5;" x1="442.5" x2="442.5" y1="285.5" y2="340.7188"/><text fill="#202020" font-family="sans-serif" font-size="14" font-weight="bold" lengthAdjust="spacingAndGlyphs" textLength="59" x="320.5" y="310.0332">[locator]</text><text fill="#202020" font-family="sans-serif" font-size="14" lengthAdjust="spacingAndGlyphs" textLength="107" x="320.5" y="327.6426">File system utility</text><!--MD5=[e885fdf926e00c05037b4edca1894181]
entity wronganswer--><polygon fill="#FDFDFD" points="306.5,428,316.5,418,451.5,418,451.5,490.8281,441.5,500.8281,306.5,500.8281,306.5,428" style="stroke: #D0D0D0; stroke-width: 1.5;"/><line style="stroke: #D0D0D0; stroke-width: 1.5;" x1="441.5" x2="450.5" y1="428" y2="419"/><line style="stroke: #D0D0D0; stroke-width: 1.5;" x1="306.5" x2="441.5" y1="428" y2="428"/><line style="stroke: #D0D0D0; stroke-width: 1.5;" x1="441.5" x2="441.5" y1="428" y2="500.8281"/><text fill="#202020" font-family="sans-serif" font-size="14" font-weight="bold" lengthAdjust="spacingAndGlyphs" textLength="105" x="321.5" y="452.5332">[wronganswer]</text><text fill="#202020" font-family="sans-serif" font-size="14" lengthAdjust="spacingAndGlyphs" textLength="74" x="321.5" y="470.1426">Competitive</text><text fill="#202020" font-family="sans-serif" font-size="14" lengthAdjust="spacingAndGlyphs" textLength="83" x="321.5" y="487.752">programming</text><!--MD5=[1f32bbe277c8e0599fc65934b7086d5d]
entity hlc_compiler--><polygon fill="#FDFDFD" points="486.5,437,496.5,427,623.5,427,623.5,482.2188,613.5,492.2188,486.5,492.2188,486.5,437" style="stroke: #D0D0D0; stroke-width: 1.5;"/><line style="stroke: #D0D0D0; stroke-width: 1.5;" x1="613.5" x2="622.5" y1="437" y2="428"/><line style="stroke: #D0D0D0; stroke-width: 1.5;" x1="486.5" x2="613.5" y1="437" y2="437"/><line style="stroke: #D0D0D0; stroke-width: 1.5;" x1="613.5" x2="613.5" y1="437" y2="492.2188"/><text fill="#202020" font-family="sans-serif" font-size="14" font-weight="bold" lengthAdjust="spacingAndGlyphs" textLength="97" x="501.5" y="461.5332">[hlc-compiler]</text><text fill="#202020" font-family="sans-serif" font-size="14" lengthAdjust="spacingAndGlyphs" textLength="86" x="501.5" y="479.1426">Compile HL/C</text><!--MD5=[e26215325eebb677c9813f98cba194e9]
entity reckoner--><polygon fill="#FDFDFD" points="522.5,143,532.5,133,689.5,133,689.5,188.2188,679.5,198.2188,522.5,198.2188,522.5,143" style="stroke: #D0D0D0; stroke-width: 1.5;"/><line style="stroke: #D0D0D0; stroke-width: 1.5;" x1="679.5" x2="688.5" y1="143" y2="134"/><line style="stroke: #D0D0D0; stroke-width: 1.5;" x1="522.5" x2="679.5" y1="143" y2="143"/><line style="stroke: #D0D0D0; stroke-width: 1.5;" x1="679.5" x2="679.5" y1="143" y2="198.2188"/><text fill="#202020" font-family="sans-serif" font-size="14" font-weight="bold" lengthAdjust="spacingAndGlyphs" textLength="74" x="537.5" y="167.5332">[reckoner]</text><text fill="#202020" font-family="sans-serif" font-size="14" lengthAdjust="spacingAndGlyphs" textLength="127" x="537.5" y="185.1426">Math / 2D Geometry</text><!--MD5=[401e3affb1b83abf6a53b393bb902add]
reverse link sinker to prayer--><path d="M315.79,75.628 C284.201,93.534 245.751,115.328 214.833,132.853 " fill="none" id="sinker&lt;-prayer" style="stroke: #808080; stroke-width: 1.0; stroke-dasharray: 7.0,7.0;"/><polygon fill="#808080" points="320.399,73.016,310.5969,73.9742,316.0492,75.4816,314.5418,80.9339,320.399,73.016" style="stroke: #808080; stroke-width: 1.0;"/><!--MD5=[39c5327ec1af7e7af05725962c8b0077]
reverse link prayer to sneaker--><path d="M157.958,203.11 C157.481,219.842 156.91,239.905 156.397,257.92 " fill="none" id="prayer&lt;-sneaker" style="stroke: #808080; stroke-width: 1.0; stroke-dasharray: 7.0,7.0;"/><polygon fill="#808080" points="158.102,198.031,153.8464,206.913,157.9591,203.029,161.8432,207.1416,158.102,198.031" style="stroke: #808080; stroke-width: 1.0;"/><!--MD5=[b1e65b35afdb85d61252a3f37458c018]
reverse link sneaker to ripper--><path d="M152.452,363.419 C151.459,384.634 150.355,408.213 149.494,426.583 " fill="none" id="sneaker&lt;-ripper" style="stroke: #808080; stroke-width: 1.0; stroke-dasharray: 7.0,7.0;"/><polygon fill="#808080" points="152.689,358.366,148.2717,367.1687,152.4547,363.3605,156.2629,367.5436,152.689,358.366" style="stroke: #808080; stroke-width: 1.0;"/><!--MD5=[e6a71dd387f4f636d7c18f316acb260d]
reverse link ripper to banker--><path d="M148,497.343 C148,517.256 148,541.602 148,560.683 " fill="none" id="ripper&lt;-banker" style="stroke: #808080; stroke-width: 1.0; stroke-dasharray: 7.0,7.0;"/><polygon fill="#808080" points="148,492.117,144,501.117,148,497.117,152,501.117,148,492.117" style="stroke: #808080; stroke-width: 1.0;"/><!--MD5=[eacca0837ac10307af44737c6ccf80aa]
reverse link banker to broker--><path d="M148,631.253 C148,648.155 148,668.264 148,685.6398 " fill="none" id="banker&lt;-broker" style="stroke: #808080; stroke-width: 1.0; stroke-dasharray: 7.0,7.0;"/><polygon fill="#808080" points="148,626.117,144,635.117,148,631.117,152,635.117,148,626.117" style="stroke: #808080; stroke-width: 1.0;"/><!--MD5=[9726e6529a18fba2f53d7e9b1e80c634]
reverse link sinker to greeter--><path d="M376,78.456 C376,95.82 376,116.306 376,132.932 " fill="none" id="sinker&lt;-greeter" style="stroke: #808080; stroke-width: 1.0; stroke-dasharray: 7.0,7.0;"/><polygon fill="#808080" points="376,73.176,372,82.176,376,78.176,380,82.176,376,73.176" style="stroke: #808080; stroke-width: 1.0;"/><!--MD5=[74f0b4a29386dd173e58189ab54773bf]
reverse link greeter to locator--><path d="M376.785,203.273 C377.261,225.568 377.863,253.735 378.319,275.088 " fill="none" id="greeter&lt;-locator" style="stroke: #808080; stroke-width: 1.0; stroke-dasharray: 7.0,7.0;"/><polygon fill="#808080" points="376.673,198.031,372.8667,207.1146,376.7801,203.0299,380.8649,206.9432,376.673,198.031" style="stroke: #808080; stroke-width: 1.0;"/><!--MD5=[baf642f327d9ceb6f8a20989207754b0]
reverse link locator to wronganswer--><path d="M379,345.829 C379,367.629 379,395.281 379,417.735 " fill="none" id="locator&lt;-wronganswer" style="stroke: #808080; stroke-width: 1.0; stroke-dasharray: 7.0,7.0;"/><polygon fill="#808080" points="379,340.705,375,349.705,379,345.705,383,349.705,379,340.705" style="stroke: #808080; stroke-width: 1.0;"/><!--MD5=[0224da154ca6addc14f544bb92d5c89e]
reverse link locator to hlc_compiler--><path d="M420.239,344.03 C449.753,369.1 489.158,402.572 517.729,426.841 " fill="none" id="locator&lt;-hlc_compiler" style="stroke: #808080; stroke-width: 1.0; stroke-dasharray: 7.0,7.0;"/><polygon fill="#808080" points="416.325,340.705,420.5953,349.5799,420.136,343.9417,425.7741,343.4824,416.325,340.705" style="stroke: #808080; stroke-width: 1.0;"/><!--MD5=[534ff90f20f86deef7219b30c8be87ea]
reverse link sinker to reckoner--><path d="M439.406,75.408 C472.965,93.355 513.918,115.256 546.822,132.853 " fill="none" id="sinker&lt;-reckoner" style="stroke: #808080; stroke-width: 1.0; stroke-dasharray: 7.0,7.0;"/><polygon fill="#808080" points="434.932,73.016,440.9827,80.787,439.3413,75.3735,444.7548,73.7321,434.932,73.016" style="stroke: #808080; stroke-width: 1.0;"/><!--MD5=[9347f60f65f4f107c74349e9c7a2964d]
@startuml diagram

' - - - - (style) - - - - - - - - - - - - - - - - - - - - - - - - - - - - - - - -

skinparam shadowing false
skinparam backgroundColor White
skinparam node {
  BackgroundColor #FDFDFD
  BorderColor #D0D0D0
  FontColor #202020
}
skinparam ArrowColor #808080
skinparam note {
  BackgroundColor White
  FontColor #606060
  BorderColor #C0C0C0
}

' - - - - (diagram) - - - - - - - - - - - - - - - - - - - - - - - - - - - - - -

node sinker [
  **[sinker]**
  Basic types and extensions
]

node prayer [
  **[prayer]**
  Macro utility
]

node sneaker [
  **[sneaker]**
  - Assertion
  - Logging
  - Unit test
]

node ripper [
  **[ripper]**
  Partial implementation of classes
]

node banker [
  **[banker]**
  Data structures
]

node broker [
  **[broker]**
  Game programming utility
  (Entity, Collision, Gamepad, Scene, ...)
]

node greeter [
  **[greeter]**
  Command line parser/builder
]

node locator [
  **[locator]**
  File system utility
]

node wronganswer [
  **[wronganswer]**
  Competitive
  programming
]

node hlc_compiler [
  **[hlc-compiler]**
  Compile HL/C
]

node reckoner [
  **[reckoner]**
  Math / 2D Geometry
]

sinker <.. prayer
prayer <.. sneaker
sneaker <.. ripper
ripper <.. banker
banker <.. broker

sinker <.. greeter
greeter <.. locator
locator <.. wronganswer
locator <.. hlc_compiler

sinker <.. reckoner

@enduml

@startuml diagram


skinparam shadowing false
skinparam backgroundColor White
skinparam node {
  BackgroundColor #FDFDFD
  BorderColor #D0D0D0
  FontColor #202020
}
skinparam ArrowColor #808080
skinparam note {
  BackgroundColor White
  FontColor #606060
  BorderColor #C0C0C0
}


node sinker [
  **[sinker]**
  Basic types and extensions
]

node prayer [
  **[prayer]**
  Macro utility
]

node sneaker [
  **[sneaker]**
  - Assertion
  - Logging
  - Unit test
]

node ripper [
  **[ripper]**
  Partial implementation of classes
]

node banker [
  **[banker]**
  Data structures
]

node broker [
  **[broker]**
  Game programming utility
  (Entity, Collision, Gamepad, Scene, ...)
]

node greeter [
  **[greeter]**
  Command line parser/builder
]

node locator [
  **[locator]**
  File system utility
]

node wronganswer [
  **[wronganswer]**
  Competitive
  programming
]

node hlc_compiler [
  **[hlc-compiler]**
  Compile HL/C
]

node reckoner [
  **[reckoner]**
  Math / 2D Geometry
]

sinker <.. prayer
prayer <.. sneaker
sneaker <.. ripper
ripper <.. banker
banker <.. broker

sinker <.. greeter
greeter <.. locator
locator <.. wronganswer
locator <.. hlc_compiler

sinker <.. reckoner

@enduml

PlantUML version 1.2020.10(Sun May 17 18:35:57 GMT+09:00 2020)
(GPL source distribution)
Java Runtime: OpenJDK Runtime Environment
JVM: OpenJDK 64-Bit Server VM
Java Version: 1.8.0_252-b09
Operating System: Windows 10
Default Encoding: MS932
Language: ja
Country: JP
--></g></svg>