<?xml version="1.0" encoding="UTF-8" standalone="no"?><svg xmlns="http://www.w3.org/2000/svg" xmlns:xlink="http://www.w3.org/1999/xlink" contentScriptType="application/ecmascript" contentStyleType="text/css" height="923px" preserveAspectRatio="none" style="width:810px;height:923px;" version="1.1" viewBox="0 0 810 923" width="810px" zoomAndPan="magnify"><defs/><g><!--MD5=[2e2f4e1d7a5de68f564c5fd59ae133df]
entity sinker--><polygon fill="#FDFDFD" points="293.5,18,303.5,8,504.5,8,504.5,63.2188,494.5,73.2188,293.5,73.2188,293.5,18" style="stroke: #D0D0D0; stroke-width: 1.5;"/><line style="stroke: #D0D0D0; stroke-width: 1.5;" x1="494.5" x2="503.5" y1="18" y2="9"/><line style="stroke: #D0D0D0; stroke-width: 1.5;" x1="293.5" x2="494.5" y1="18" y2="18"/><line style="stroke: #D0D0D0; stroke-width: 1.5;" x1="494.5" x2="494.5" y1="18" y2="73.2188"/><text fill="#202020" font-family="sans-serif" font-size="14" font-weight="bold" lengthAdjust="spacingAndGlyphs" textLength="54" x="308.5" y="42.5332">[sinker]</text><text fill="#202020" font-family="sans-serif" font-size="14" lengthAdjust="spacingAndGlyphs" textLength="171" x="308.5" y="60.1426">Basic types and extensions</text><!--MD5=[3861a36c2112e8a0e866ae95aca4a241]
entity prayer--><polygon fill="#FDFDFD" points="198.5,143,208.5,133,313.5,133,313.5,188.2188,303.5,198.2188,198.5,198.2188,198.5,143" style="stroke: #D0D0D0; stroke-width: 1.5;"/><line style="stroke: #D0D0D0; stroke-width: 1.5;" x1="303.5" x2="312.5" y1="143" y2="134"/><line style="stroke: #D0D0D0; stroke-width: 1.5;" x1="198.5" x2="303.5" y1="143" y2="143"/><line style="stroke: #D0D0D0; stroke-width: 1.5;" x1="303.5" x2="303.5" y1="143" y2="198.2188"/><text fill="#202020" font-family="sans-serif" font-size="14" font-weight="bold" lengthAdjust="spacingAndGlyphs" textLength="55" x="213.5" y="167.5332">[prayer]</text><text fill="#202020" font-family="sans-serif" font-size="14" lengthAdjust="spacingAndGlyphs" textLength="75" x="213.5" y="185.1426">Macro utility</text><!--MD5=[e63671647d2a27984ad6837a36ad44b3]
entity sneaker--><polygon fill="#FDFDFD" points="180,268,190,258,288,258,288,348.4375,278,358.4375,180,358.4375,180,268" style="stroke: #D0D0D0; stroke-width: 1.5;"/><line style="stroke: #D0D0D0; stroke-width: 1.5;" x1="278" x2="287" y1="268" y2="259"/><line style="stroke: #D0D0D0; stroke-width: 1.5;" x1="180" x2="278" y1="268" y2="268"/><line style="stroke: #D0D0D0; stroke-width: 1.5;" x1="278" x2="278" y1="268" y2="358.4375"/><text fill="#202020" font-family="sans-serif" font-size="14" font-weight="bold" lengthAdjust="spacingAndGlyphs" textLength="67" x="195" y="292.5332">[sneaker]</text><text fill="#202020" font-family="sans-serif" font-size="14" lengthAdjust="spacingAndGlyphs" textLength="68" x="195" y="310.1426">- Assertion</text><text fill="#202020" font-family="sans-serif" font-size="14" lengthAdjust="spacingAndGlyphs" textLength="60" x="195" y="327.752">- Logging</text><text fill="#202020" font-family="sans-serif" font-size="14" lengthAdjust="spacingAndGlyphs" textLength="60" x="195" y="345.3613">- Unit test</text><!--MD5=[6f1c1e0618e0690fd2ee1245e9fed688]
entity ripper--><polygon fill="#FDFDFD" points="95,437,105,427,341,427,341,482.2188,331,492.2188,95,492.2188,95,437" style="stroke: #D0D0D0; stroke-width: 1.5;"/><line style="stroke: #D0D0D0; stroke-width: 1.5;" x1="331" x2="340" y1="437" y2="428"/><line style="stroke: #D0D0D0; stroke-width: 1.5;" x1="95" x2="331" y1="437" y2="437"/><line style="stroke: #D0D0D0; stroke-width: 1.5;" x1="331" x2="331" y1="437" y2="492.2188"/><text fill="#202020" font-family="sans-serif" font-size="14" font-weight="bold" lengthAdjust="spacingAndGlyphs" textLength="53" x="110" y="461.5332">[ripper]</text><text fill="#202020" font-family="sans-serif" font-size="14" lengthAdjust="spacingAndGlyphs" textLength="206" x="110" y="479.1426">Partial implementation of classes</text><!--MD5=[68901c361d0d0b317b2d874379863fc4]
entity banker--><polygon fill="#FDFDFD" points="146.5,571,156.5,561,283.5,561,283.5,616.2188,273.5,626.2188,146.5,626.2188,146.5,571" style="stroke: #D0D0D0; stroke-width: 1.5;"/><line style="stroke: #D0D0D0; stroke-width: 1.5;" x1="273.5" x2="282.5" y1="571" y2="562"/><line style="stroke: #D0D0D0; stroke-width: 1.5;" x1="146.5" x2="273.5" y1="571" y2="571"/><line style="stroke: #D0D0D0; stroke-width: 1.5;" x1="273.5" x2="273.5" y1="571" y2="626.2188"/><text fill="#202020" font-family="sans-serif" font-size="14" font-weight="bold" lengthAdjust="spacingAndGlyphs" textLength="59" x="161.5" y="595.5332">[banker]</text><text fill="#202020" font-family="sans-serif" font-size="14" lengthAdjust="spacingAndGlyphs" textLength="97" x="161.5" y="613.1426">Data structures</text><!--MD5=[e701bbac852ce3c7f1c3d2193e52d58f]
entity broker--><polygon fill="#FDFDFD" points="6,696,16,686,290,686,290,758.8281,280,768.8281,6,768.8281,6,696" style="stroke: #D0D0D0; stroke-width: 1.5;"/><line style="stroke: #D0D0D0; stroke-width: 1.5;" x1="280" x2="289" y1="696" y2="687"/><line style="stroke: #D0D0D0; stroke-width: 1.5;" x1="6" x2="280" y1="696" y2="696"/><line style="stroke: #D0D0D0; stroke-width: 1.5;" x1="280" x2="280" y1="696" y2="768.8281"/><text fill="#202020" font-family="sans-serif" font-size="14" font-weight="bold" lengthAdjust="spacingAndGlyphs" textLength="57" x="21" y="720.5332">[broker]</text><text fill="#202020" font-family="sans-serif" font-size="14" lengthAdjust="spacingAndGlyphs" textLength="161" x="21" y="738.1426">Game programming utility</text><text fill="#202020" font-family="sans-serif" font-size="14" lengthAdjust="spacingAndGlyphs" textLength="244" x="21" y="755.752">(Entity, Collision, Gamepad, Scene, ...)</text><!--MD5=[e26215325eebb677c9813f98cba194e9]
entity reckoner--><polygon fill="#FDFDFD" points="318.5,571,328.5,561,485.5,561,485.5,616.2188,475.5,626.2188,318.5,626.2188,318.5,571" style="stroke: #D0D0D0; stroke-width: 1.5;"/><line style="stroke: #D0D0D0; stroke-width: 1.5;" x1="475.5" x2="484.5" y1="571" y2="562"/><line style="stroke: #D0D0D0; stroke-width: 1.5;" x1="318.5" x2="475.5" y1="571" y2="571"/><line style="stroke: #D0D0D0; stroke-width: 1.5;" x1="475.5" x2="475.5" y1="571" y2="626.2188"/><text fill="#202020" font-family="sans-serif" font-size="14" font-weight="bold" lengthAdjust="spacingAndGlyphs" textLength="74" x="333.5" y="595.5332">[reckoner]</text><text fill="#202020" font-family="sans-serif" font-size="14" lengthAdjust="spacingAndGlyphs" textLength="127" x="333.5" y="613.1426">Math / 2D Geometry</text><!--MD5=[62f7d04d1ec187bf1006a47011a35017]
entity firedancer_vm--><polygon fill="#FDFDFD" points="325.5,696,335.5,686,478.5,686,478.5,758.8281,468.5,768.8281,325.5,768.8281,325.5,696" style="stroke: #D0D0D0; stroke-width: 1.5;"/><line style="stroke: #D0D0D0; stroke-width: 1.5;" x1="468.5" x2="477.5" y1="696" y2="687"/><line style="stroke: #D0D0D0; stroke-width: 1.5;" x1="325.5" x2="468.5" y1="696" y2="696"/><line style="stroke: #D0D0D0; stroke-width: 1.5;" x1="468.5" x2="468.5" y1="696" y2="768.8281"/><text fill="#202020" font-family="sans-serif" font-size="14" font-weight="bold" lengthAdjust="spacingAndGlyphs" textLength="109" x="340.5" y="720.5332">[firedancer-vm]</text><text fill="#202020" font-family="sans-serif" font-size="14" lengthAdjust="spacingAndGlyphs" textLength="113" x="340.5" y="738.1426">Vitual machine for</text><text fill="#202020" font-family="sans-serif" font-size="14" lengthAdjust="spacingAndGlyphs" textLength="69" x="340.5" y="755.752">Firedancer</text><!--MD5=[fa50da26cfc34a2681b2bafa2f07be35]
entity firedancer--><polygon fill="#FDFDFD" points="298,839,308,829,506,829,506,901.8281,496,911.8281,298,911.8281,298,839" style="stroke: #D0D0D0; stroke-width: 1.5;"/><line style="stroke: #D0D0D0; stroke-width: 1.5;" x1="496" x2="505" y1="839" y2="830"/><line style="stroke: #D0D0D0; stroke-width: 1.5;" x1="298" x2="496" y1="839" y2="839"/><line style="stroke: #D0D0D0; stroke-width: 1.5;" x1="496" x2="496" y1="839" y2="911.8281"/><text fill="#202020" font-family="sans-serif" font-size="14" font-weight="bold" lengthAdjust="spacingAndGlyphs" textLength="83" x="313" y="863.5332">[firedancer]</text><text fill="#202020" font-family="sans-serif" font-size="14" lengthAdjust="spacingAndGlyphs" textLength="168" x="313" y="881.1426">Define/compile 2D shmups</text><text fill="#202020" font-family="sans-serif" font-size="14" lengthAdjust="spacingAndGlyphs" textLength="117" x="313" y="898.752">bullet-hell patterns</text><!--MD5=[bb766f2372fd012cbf7b0fbd74e66c9c]
entity greeter--><polygon fill="#FDFDFD" points="452,143,462,133,674,133,674,188.2188,664,198.2188,452,198.2188,452,143" style="stroke: #D0D0D0; stroke-width: 1.5;"/><line style="stroke: #D0D0D0; stroke-width: 1.5;" x1="664" x2="673" y1="143" y2="134"/><line style="stroke: #D0D0D0; stroke-width: 1.5;" x1="452" x2="664" y1="143" y2="143"/><line style="stroke: #D0D0D0; stroke-width: 1.5;" x1="664" x2="664" y1="143" y2="198.2188"/><text fill="#202020" font-family="sans-serif" font-size="14" font-weight="bold" lengthAdjust="spacingAndGlyphs" textLength="63" x="467" y="167.5332">[greeter]</text><text fill="#202020" font-family="sans-serif" font-size="14" lengthAdjust="spacingAndGlyphs" textLength="182" x="467" y="185.1426">Command line parser/builder</text><!--MD5=[86550f1cfd8dba1ec188e76c59aa4094]
entity locator--><polygon fill="#FDFDFD" points="489.5,285.5,499.5,275.5,636.5,275.5,636.5,330.7188,626.5,340.7188,489.5,340.7188,489.5,285.5" style="stroke: #D0D0D0; stroke-width: 1.5;"/><line style="stroke: #D0D0D0; stroke-width: 1.5;" x1="626.5" x2="635.5" y1="285.5" y2="276.5"/><line style="stroke: #D0D0D0; stroke-width: 1.5;" x1="489.5" x2="626.5" y1="285.5" y2="285.5"/><line style="stroke: #D0D0D0; stroke-width: 1.5;" x1="626.5" x2="626.5" y1="285.5" y2="340.7188"/><text fill="#202020" font-family="sans-serif" font-size="14" font-weight="bold" lengthAdjust="spacingAndGlyphs" textLength="59" x="504.5" y="310.0332">[locator]</text><text fill="#202020" font-family="sans-serif" font-size="14" lengthAdjust="spacingAndGlyphs" textLength="107" x="504.5" y="327.6426">File system utility</text><!--MD5=[e885fdf926e00c05037b4edca1894181]
entity wronganswer--><polygon fill="#FDFDFD" points="471.5,428,481.5,418,616.5,418,616.5,490.8281,606.5,500.8281,471.5,500.8281,471.5,428" style="stroke: #D0D0D0; stroke-width: 1.5;"/><line style="stroke: #D0D0D0; stroke-width: 1.5;" x1="606.5" x2="615.5" y1="428" y2="419"/><line style="stroke: #D0D0D0; stroke-width: 1.5;" x1="471.5" x2="606.5" y1="428" y2="428"/><line style="stroke: #D0D0D0; stroke-width: 1.5;" x1="606.5" x2="606.5" y1="428" y2="500.8281"/><text fill="#202020" font-family="sans-serif" font-size="14" font-weight="bold" lengthAdjust="spacingAndGlyphs" textLength="105" x="486.5" y="452.5332">[wronganswer]</text><text fill="#202020" font-family="sans-serif" font-size="14" lengthAdjust="spacingAndGlyphs" textLength="74" x="486.5" y="470.1426">Competitive</text><text fill="#202020" font-family="sans-serif" font-size="14" lengthAdjust="spacingAndGlyphs" textLength="83" x="486.5" y="487.752">programming</text><!--MD5=[1f32bbe277c8e0599fc65934b7086d5d]
entity hlc_compiler--><polygon fill="#FDFDFD" points="651.5,437,661.5,427,788.5,427,788.5,482.2188,778.5,492.2188,651.5,492.2188,651.5,437" style="stroke: #D0D0D0; stroke-width: 1.5;"/><line style="stroke: #D0D0D0; stroke-width: 1.5;" x1="778.5" x2="787.5" y1="437" y2="428"/><line style="stroke: #D0D0D0; stroke-width: 1.5;" x1="651.5" x2="778.5" y1="437" y2="437"/><line style="stroke: #D0D0D0; stroke-width: 1.5;" x1="778.5" x2="778.5" y1="437" y2="492.2188"/><text fill="#202020" font-family="sans-serif" font-size="14" font-weight="bold" lengthAdjust="spacingAndGlyphs" textLength="97" x="666.5" y="461.5332">[hlc-compiler]</text><text fill="#202020" font-family="sans-serif" font-size="14" lengthAdjust="spacingAndGlyphs" textLength="86" x="666.5" y="479.1426">Compile HL/C</text><!--MD5=[401e3affb1b83abf6a53b393bb902add]
reverse link sinker to prayer--><path d="M358.367,76.45 C337.702,94.224 312.781,115.661 292.701,132.932 " fill="none" id="sinker&lt;-prayer" style="stroke: #808080; stroke-width: 1.0; stroke-dasharray: 7.0,7.0;"/><polygon fill="#808080" points="362.174,73.176,352.7419,76.0107,358.3828,76.4358,357.9576,82.0767,362.174,73.176" style="stroke: #808080; stroke-width: 1.0;"/><!--MD5=[39c5327ec1af7e7af05725962c8b0077]
reverse link prayer to sneaker--><path d="M250.267,203.11 C247.648,219.842 244.506,239.905 241.685,257.92 " fill="none" id="prayer&lt;-sneaker" style="stroke: #808080; stroke-width: 1.0; stroke-dasharray: 7.0,7.0;"/><polygon fill="#808080" points="251.063,198.031,245.7176,206.3031,250.2888,202.9707,253.6211,207.5418,251.063,198.031" style="stroke: #808080; stroke-width: 1.0;"/><!--MD5=[b1e65b35afdb85d61252a3f37458c018]
reverse link sneaker to ripper--><path d="M228.176,363.419 C225.905,384.634 223.382,408.213 221.416,426.583 " fill="none" id="sneaker&lt;-ripper" style="stroke: #808080; stroke-width: 1.0; stroke-dasharray: 7.0,7.0;"/><polygon fill="#808080" points="228.717,358.366,223.7833,366.89,228.1857,363.3377,231.738,367.7401,228.717,358.366" style="stroke: #808080; stroke-width: 1.0;"/><!--MD5=[e6a71dd387f4f636d7c18f316acb260d]
reverse link ripper to banker--><path d="M217.163,497.343 C216.71,517.256 216.157,541.602 215.723,560.683 " fill="none" id="ripper&lt;-banker" style="stroke: #808080; stroke-width: 1.0; stroke-dasharray: 7.0,7.0;"/><polygon fill="#808080" points="217.281,492.117,213.0763,501.0232,217.1667,497.1157,221.0742,501.2061,217.281,492.117" style="stroke: #808080; stroke-width: 1.0;"/><!--MD5=[eacca0837ac10307af44737c6ccf80aa]
reverse link banker to broker--><path d="M196.567,630.817 C187.942,647.808 177.635,668.114 168.74,685.64 " fill="none" id="banker&lt;-broker" style="stroke: #808080; stroke-width: 1.0; stroke-dasharray: 7.0,7.0;"/><polygon fill="#808080" points="198.952,626.117,191.3119,632.3322,196.6891,630.5756,198.4457,635.9528,198.952,626.117" style="stroke: #808080; stroke-width: 1.0;"/><!--MD5=[534ff90f20f86deef7219b30c8be87ea]
reverse link sinker to reckoner--><path d="M399.201,78.402 C399.756,180.42 401.306,465.032 401.827,560.681 " fill="none" id="sinker&lt;-reckoner" style="stroke: #808080; stroke-width: 1.0; stroke-dasharray: 7.0,7.0;"/><polygon fill="#808080" points="399.172,73.103,395.2209,82.1246,399.1991,78.1029,403.2208,82.0812,399.172,73.103" style="stroke: #808080; stroke-width: 1.0;"/><!--MD5=[ba6d34d4188514d92f8f3b06eace93e4]
reverse link banker to firedancer_vm--><path d="M264.015,629.099 C288.673,646.505 318.714,667.71 344.463,685.885 " fill="none" id="banker&lt;-firedancer_vm" style="stroke: #808080; stroke-width: 1.0; stroke-dasharray: 7.0,7.0;"/><polygon fill="#808080" points="259.791,626.117,264.8372,634.5749,263.8759,629.0003,269.4505,628.039,259.791,626.117" style="stroke: #808080; stroke-width: 1.0;"/><!--MD5=[55944c7f286d43843d4f4546b68fdf07]
reverse link reckoner to firedancer_vm--><path d="M402,631.253 C402,648.155 402,668.264 402,685.64 " fill="none" id="reckoner&lt;-firedancer_vm" style="stroke: #808080; stroke-width: 1.0; stroke-dasharray: 7.0,7.0;"/><polygon fill="#808080" points="402,626.117,398,635.117,402,631.117,406,635.117,402,626.117" style="stroke: #808080; stroke-width: 1.0;"/><!--MD5=[b76c0fe4cbf4e1451a4cfcb376ccba00]
reverse link firedancer_vm to firedancer--><path d="M402,774.629 C402,792.108 402,811.866 402,828.8086 " fill="none" id="firedancer_vm&lt;-firedancer" style="stroke: #808080; stroke-width: 1.0; stroke-dasharray: 7.0,7.0;"/><polygon fill="#808080" points="402,769.283,398,778.283,402,774.283,406,778.283,402,769.283" style="stroke: #808080; stroke-width: 1.0;"/><!--MD5=[9726e6529a18fba2f53d7e9b1e80c634]
reverse link sinker to greeter--><path d="M445.305,76.229 C469.062,94.047 497.785,115.589 520.909,132.932 " fill="none" id="sinker&lt;-greeter" style="stroke: #808080; stroke-width: 1.0; stroke-dasharray: 7.0,7.0;"/><polygon fill="#808080" points="441.234,73.176,446.034,81.776,445.234,76.176,450.834,75.376,441.234,73.176" style="stroke: #808080; stroke-width: 1.0;"/><!--MD5=[74f0b4a29386dd173e58189ab54773bf]
reverse link greeter to locator--><path d="M563,203.273 C563,225.568 563,253.735 563,275.088 " fill="none" id="greeter&lt;-locator" style="stroke: #808080; stroke-width: 1.0; stroke-dasharray: 7.0,7.0;"/><polygon fill="#808080" points="563,198.031,559,207.031,563,203.031,567,207.031,563,198.031" style="stroke: #808080; stroke-width: 1.0;"/><!--MD5=[baf642f327d9ceb6f8a20989207754b0]
reverse link locator to wronganswer--><path d="M558.319,345.829 C555.549,367.629 552.035,395.281 549.181,417.735 " fill="none" id="locator&lt;-wronganswer" style="stroke: #808080; stroke-width: 1.0; stroke-dasharray: 7.0,7.0;"/><polygon fill="#808080" points="558.971,340.705,553.8688,349.1293,558.341,345.6651,561.8051,350.1373,558.971,340.705" style="stroke: #808080; stroke-width: 1.0;"/><!--MD5=[0224da154ca6addc14f544bb92d5c89e]
reverse link locator to hlc_compiler--><path d="M600.11,344.337 C626.402,369.373 661.37,402.671 686.752,426.841 " fill="none" id="locator&lt;-hlc_compiler" style="stroke: #808080; stroke-width: 1.0; stroke-dasharray: 7.0,7.0;"/><polygon fill="#808080" points="596.296,340.705,600.0552,349.8082,599.9169,344.153,605.5721,344.0147,596.296,340.705" style="stroke: #808080; stroke-width: 1.0;"/><!--MD5=[3dc22b76e3fa560a09eb41950f6344ed]
@startuml diagram

' - - - - (style) - - - - - - - - - - - - - - - - - - - - - - - - - - - - - - - -

skinparam shadowing false
skinparam backgroundColor White
skinparam node {
  BackgroundColor #FDFDFD
  BorderColor #D0D0D0
  FontColor #202020
}
skinparam ArrowColor #808080
skinparam note {
  BackgroundColor White
  FontColor #606060
  BorderColor #C0C0C0
}

' - - - - (diagram) - - - - - - - - - - - - - - - - - - - - - - - - - - - - - -

node sinker [
  **[sinker]**
  Basic types and extensions
]

node prayer [
  **[prayer]**
  Macro utility
]

node sneaker [
  **[sneaker]**
  - Assertion
  - Logging
  - Unit test
]

node ripper [
  **[ripper]**
  Partial implementation of classes
]

node banker [
  **[banker]**
  Data structures
]

node broker [
  **[broker]**
  Game programming utility
  (Entity, Collision, Gamepad, Scene, ...)
]

node reckoner [
  **[reckoner]**
  Math / 2D Geometry
]

node firedancer_vm [
  **[firedancer-vm]**
  Vitual machine for
  Firedancer
]

node firedancer [
  **[firedancer]**
  Define/compile 2D shmups
  bullet-hell patterns
]

node greeter [
  **[greeter]**
  Command line parser/builder
]

node locator [
  **[locator]**
  File system utility
]

node wronganswer [
  **[wronganswer]**
  Competitive
  programming
]

node hlc_compiler [
  **[hlc-compiler]**
  Compile HL/C
]

sinker <.. prayer
prayer <.. sneaker
sneaker <.. ripper
ripper <.. banker
banker <.. broker

sinker <.. reckoner

banker <.. firedancer_vm
reckoner <.. firedancer_vm
firedancer_vm <.. firedancer

sinker <.. greeter
greeter <.. locator
locator <.. wronganswer
locator <.. hlc_compiler

@enduml

@startuml diagram


skinparam shadowing false
skinparam backgroundColor White
skinparam node {
  BackgroundColor #FDFDFD
  BorderColor #D0D0D0
  FontColor #202020
}
skinparam ArrowColor #808080
skinparam note {
  BackgroundColor White
  FontColor #606060
  BorderColor #C0C0C0
}


node sinker [
  **[sinker]**
  Basic types and extensions
]

node prayer [
  **[prayer]**
  Macro utility
]

node sneaker [
  **[sneaker]**
  - Assertion
  - Logging
  - Unit test
]

node ripper [
  **[ripper]**
  Partial implementation of classes
]

node banker [
  **[banker]**
  Data structures
]

node broker [
  **[broker]**
  Game programming utility
  (Entity, Collision, Gamepad, Scene, ...)
]

node reckoner [
  **[reckoner]**
  Math / 2D Geometry
]

node firedancer_vm [
  **[firedancer-vm]**
  Vitual machine for
  Firedancer
]

node firedancer [
  **[firedancer]**
  Define/compile 2D shmups
  bullet-hell patterns
]

node greeter [
  **[greeter]**
  Command line parser/builder
]

node locator [
  **[locator]**
  File system utility
]

node wronganswer [
  **[wronganswer]**
  Competitive
  programming
]

node hlc_compiler [
  **[hlc-compiler]**
  Compile HL/C
]

sinker <.. prayer
prayer <.. sneaker
sneaker <.. ripper
ripper <.. banker
banker <.. broker

sinker <.. reckoner

banker <.. firedancer_vm
reckoner <.. firedancer_vm
firedancer_vm <.. firedancer

sinker <.. greeter
greeter <.. locator
locator <.. wronganswer
locator <.. hlc_compiler

@enduml

PlantUML version 1.2020.10(Sun May 17 18:35:57 GMT+09:00 2020)
(GPL source distribution)
Java Runtime: OpenJDK Runtime Environment
JVM: OpenJDK 64-Bit Server VM
Java Version: 1.8.0_252-b09
Operating System: Windows 10
Default Encoding: MS932
Language: ja
Country: JP
--></g></svg>